# xmcd
#
# Track frame offsets:
#	150
#	14478
#	28071
#	44443
#	56654
#	74075
#	91686
#	107033
#	122728
#	138273
#	150335
#	162809
#
# Disc length: 2377 seconds
#
# Revision: 1
# Processed by: cddbd v1.5.2PL0 Copyright (c) Steve Scherf et al.
# Submitted via: audiograbber 1.83.01
#
DISCID=9b09470c
DTITLE=Fábio Vargas - Fabio Vargas
DYEAR=1900
DGENRE=
TTITLE0=Adeus Solidão
TTITLE1=Nhaco vari nheco fun
TTITLE2=Velório do seu Tenório
TTITLE3=Dá um gelo nela
TTITLE4=Viva a bombacha
TTITLE5=Divina menina
TTITLE6=Vida sanfoneira
TTITLE7=Gaita da bossoroca
TTITLE8=Baita baile
TTITLE9=recado pra Filomena
TTITLE10=Sonho louco
TTITLE11=Vício de viver
EXTD=
EXTT0=
EXTT1=
EXTT2=
EXTT3=
EXTT4=
EXTT5=
EXTT6=
EXTT7=
EXTT8=
EXTT9=
EXTT10=
EXTT11=
PLAYORDER=
